<?xml version="1.0" standalone="no"?>
<!DOCTYPE svg PUBLIC "-//W3C//DTD SVG 20010904//EN"
 "http://www.w3.org/TR/2001/REC-SVG-20010904/DTD/svg10.dtd">
<svg version="1.0" xmlns="http://www.w3.org/2000/svg"
 width="260.000000pt" height="260.000000pt" viewBox="0 0 260.000000 260.000000"
 preserveAspectRatio="xMidYMid meet">
<metadata>
Created by potrace 1.14, written by Peter Selinger 2001-2017
</metadata>
<g transform="translate(0.000000,260.000000) scale(0.100000,-0.100000)"
fill="#000000" stroke="none">
<path d="M1104 2523 c-237 -51 -484 -104 -688 -148 -129 -28 -166 -43 -166
-65 0 -18 25 -33 81 -49 l64 -18 1 -219 c1 -179 -2 -223 -14 -242 -19 -29 -25
-224 -10 -327 11 -79 40 -155 60 -155 42 0 73 145 71 336 0 73 -5 111 -17 135
-13 26 -16 68 -16 236 0 233 -9 217 101 186 l60 -17 -7 -50 c-13 -99 -12 -131
7 -171 14 -29 18 -50 13 -80 -10 -63 -3 -229 11 -243 2 -2 -6 -19 -19 -36 -13
-17 -29 -48 -36 -70 -14 -44 -8 -152 11 -188 16 -32 50 -68 64 -68 7 0 18 -26
25 -57 28 -129 63 -210 131 -308 33 -48 95 -114 128 -138 22 -15 25 -24 26
-97 1 -45 -3 -83 -7 -86 -5 -3 -82 -7 -171 -8 -89 -2 -181 -8 -205 -15 -117
-33 -231 -135 -279 -251 -23 -55 -27 -83 -31 -187 l-4 -123 1011 0 1012 0 -2
112 c-1 120 -6 144 -46 225 -49 101 -139 180 -248 219 -38 13 -89 18 -210 20
-88 1 -167 3 -175 3 -13 1 -16 16 -15 86 1 73 4 88 21 99 111 78 215 245 253
406 17 71 25 87 55 112 74 61 87 222 25 309 -16 23 -18 37 -11 100 4 41 4 109
-1 151 -6 64 -5 82 9 103 18 27 22 111 10 185 l-8 46 154 43 c84 24 167 48
184 53 32 8 52 44 35 61 -7 7 -134 40 -199 52 -15 2 -79 16 -142 30 -63 15
-124 28 -135 29 -11 2 -42 8 -70 14 -162 37 -294 65 -321 69 -17 2 -63 12
-101 22 l-70 17 -199 -43z"/>
</g>
</svg>
