<svg width="32" height="32" viewBox="0 0 32 32" fill="none" xmlns="http://www.w3.org/2000/svg">
<path d="M7.99967 25.3337H11.9997V17.3337H19.9997V25.3337H23.9997V13.3337L15.9997 7.33366L7.99967 13.3337V25.3337ZM7.99967 28.0003C7.26634 28.0003 6.63879 27.7394 6.11701 27.2177C5.59434 26.695 5.33301 26.067 5.33301 25.3337V13.3337C5.33301 12.9114 5.42767 12.5114 5.61701 12.1337C5.80545 11.7559 6.06634 11.4448 6.39967 11.2003L14.3997 5.20033C14.6441 5.02255 14.8997 4.88921 15.1663 4.80033C15.433 4.71144 15.7108 4.66699 15.9997 4.66699C16.2886 4.66699 16.5663 4.71144 16.833 4.80033C17.0997 4.88921 17.3552 5.02255 17.5997 5.20033L25.5997 11.2003C25.933 11.4448 26.1943 11.7559 26.3837 12.1337C26.5721 12.5114 26.6663 12.9114 26.6663 13.3337V25.3337C26.6663 26.067 26.4055 26.695 25.8837 27.2177C25.361 27.7394 24.733 28.0003 23.9997 28.0003H17.333V20.0003H14.6663V28.0003H7.99967Z" fill="#111827"/>
</svg>
