<svg width="18" height="18" viewBox="0 0 18 18" fill="none" xmlns="http://www.w3.org/2000/svg">
<path d="M4.86169 2.25C4.66655 2.24985 4.4733 2.28815 4.29297 2.36271C4.11264 2.43726 3.94877 2.54661 3.81071 2.68451C3.67265 2.82242 3.56311 2.98617 3.48835 3.16641C3.41359 3.34666 3.37507 3.53987 3.375 3.735C3.375 4.55625 4.04044 5.23688 4.86 5.23688C5.68069 5.23688 6.34669 4.55625 6.34669 3.73613C6.34684 3.54102 6.30853 3.34779 6.23397 3.1675C6.15941 2.9872 6.05005 2.82336 5.91214 2.68534C5.77423 2.54733 5.61047 2.43785 5.43023 2.36315C5.24999 2.28845 5.05679 2.25 4.86169 2.25V2.25ZM12.1134 6.1875C10.8652 6.1875 10.1514 6.84 9.80831 7.48913H9.77231V6.36244H7.3125V14.625H9.87581V10.5351C9.87581 9.45731 9.95681 8.41556 11.2905 8.41556C12.6051 8.41556 12.6242 9.64463 12.6242 10.6031V14.625H15.1875V10.0868C15.1875 7.866 14.7099 6.1875 12.1134 6.1875ZM3.57919 6.36188V14.625H6.14419V6.36188H3.57919V6.36188Z" fill="#111827"/>
</svg>
