<svg width="18" height="18" viewBox="0 0 18 18" fill="none" xmlns="http://www.w3.org/2000/svg">
<path d="M6.34843 8.4698C7.19818 7.62005 8.68018 7.62005 9.52993 8.4698L10.0602 9.00005L11.1207 7.93955L10.5904 7.4093C9.88318 6.7013 8.94118 6.31055 7.93918 6.31055C6.93718 6.31055 5.99518 6.7013 5.28793 7.4093L3.69643 9.00005C2.99465 9.70408 2.60059 10.6576 2.60059 11.6517C2.60059 12.6457 2.99465 13.5993 3.69643 14.3033C4.04434 14.6517 4.45766 14.9279 4.91264 15.1161C5.36763 15.3043 5.85532 15.4007 6.34768 15.3998C6.84018 15.4008 7.32802 15.3045 7.78315 15.1163C8.23827 14.9281 8.65171 14.6518 8.99968 14.3033L9.52993 13.773L8.46943 12.7125L7.93918 13.2428C7.51653 13.6636 6.94444 13.8998 6.34806 13.8998C5.75168 13.8998 5.17958 13.6636 4.75693 13.2428C4.33581 12.8203 4.09934 12.2482 4.09934 11.6517C4.09934 11.0552 4.33581 10.483 4.75693 10.0605L6.34843 8.4698Z" fill="#111827"/>
<path d="M8.99991 3.69705L8.46966 4.2273L9.53016 5.2878L10.0604 4.75755C10.4831 4.33679 11.0552 4.10057 11.6515 4.10057C12.2479 4.10057 12.82 4.33679 13.2427 4.75755C13.6638 5.18 13.9003 5.75218 13.9003 6.34867C13.9003 6.94517 13.6638 7.51735 13.2427 7.9398L11.6512 9.53055C10.8014 10.3803 9.31941 10.3803 8.46966 9.53055L7.93941 9.0003L6.87891 10.0608L7.40916 10.591C8.11641 11.299 9.05841 11.6898 10.0604 11.6898C11.0624 11.6898 12.0044 11.299 12.7117 10.591L14.3032 9.0003C15.0049 8.29626 15.399 7.34274 15.399 6.34867C15.399 5.35461 15.0049 4.40109 14.3032 3.69705C13.5993 2.9949 12.6457 2.60059 11.6515 2.60059C10.6573 2.60059 9.70375 2.9949 8.99991 3.69705V3.69705Z" fill="#111827"/>
</svg>
