<svg width="118" height="23" viewBox="0 0 118 23" fill="none" xmlns="http://www.w3.org/2000/svg">
<g clip-path="url(#clip0_226_10)">
<path d="M14.4449 15.5557H5.55599C4.67193 15.5557 3.82409 15.9069 3.19897 16.532C2.57385 17.1571 2.22266 18.0049 2.22266 18.889V20.0001H17.7782V18.889C17.7782 17.0479 16.2865 15.5557 14.4449 15.5557Z" fill="#111827"/>
<path d="M4.49095 18.5225C4.6304 18.5225 4.71373 19.9997 4.71373 19.9997H4.18262C4.18262 19.9997 4.28984 18.5225 4.49095 18.5225ZM6.15762 18.5225C6.29706 18.5225 6.3804 19.9997 6.3804 19.9997H5.84873C5.84928 19.9997 5.95651 18.5225 6.15762 18.5225ZM13.8498 18.5225C13.7104 18.5225 13.6271 19.9997 13.6271 19.9997H14.1582C14.1576 19.9997 14.0504 18.5225 13.8498 18.5225ZM15.5165 18.5225C15.3771 18.5225 15.2937 19.9997 15.2937 19.9997H15.8248C15.8243 19.9997 15.7171 18.5225 15.5165 18.5225Z" fill="#66757F"/>
<path d="M6.87793 15.5557C6.87793 15.5557 7.01126 16.0212 7.30571 16.6507C7.76515 17.6318 8.62015 19.014 10.0002 19.6734C11.3807 19.014 12.2357 17.6318 12.6946 16.6507C12.989 16.0212 13.1224 15.5557 13.1224 15.5557H6.87793Z" fill="#77B255"/>
<path d="M10.0002 17.7779C11.294 17.7779 12.1568 17.2112 12.6946 16.6507C12.989 16.0212 13.1224 15.5557 13.1224 15.5557H6.87793C6.87793 15.5557 7.01126 16.0212 7.30571 16.6507C7.84348 17.2112 8.70626 17.7779 10.0002 17.7779Z" fill="#5C913B"/>
<path d="M7.5777 15.6141C7.5777 16.1108 8.88882 16.7214 9.99993 16.7214C11.111 16.7214 12.4216 16.1108 12.4216 15.6147V13.4941H7.57715V15.6141H7.5777Z" fill="#F3D2A2"/>
<path d="M7.5738 14.4297C8.24935 15.193 9.08713 15.3997 9.99824 15.3997C10.9088 15.3997 11.746 15.1925 12.4221 14.4297V12.4902H7.57324V14.4297H7.5738Z" fill="#E2C196"/>
<path d="M6.35822 8.85371C6.35822 9.65815 5.95044 10.3104 5.44766 10.3104C4.94489 10.3104 4.53711 9.65815 4.53711 8.85371C4.53711 8.04926 4.94489 7.39648 5.44766 7.39648C5.95044 7.39593 6.35822 8.04871 6.35822 8.85371ZM15.4632 8.85371C15.4632 9.65815 15.056 10.3104 14.5527 10.3104C14.0499 10.3104 13.6421 9.65815 13.6421 8.85371C13.6421 8.04926 14.0493 7.39648 14.5527 7.39648C15.056 7.39593 15.4632 8.04871 15.4632 8.85371Z" fill="#F3D2A2"/>
<path d="M5.26465 9.42161C5.26465 6.31661 7.38465 3.79883 9.99965 3.79883C12.6146 3.79883 14.7341 6.31661 14.7341 9.42161C14.7341 12.5266 12.6146 15.0444 9.99965 15.0444C7.38465 15.0444 5.26465 12.5272 5.26465 9.42161Z" fill="#F3D2A2"/>
<path d="M10.0003 13.2231C8.47026 13.2231 8.00026 12.8314 7.92193 12.752C7.85194 12.6856 7.81122 12.594 7.80872 12.4975C7.80622 12.4011 7.84214 12.3075 7.90859 12.2376C7.97505 12.1676 8.06658 12.1268 8.16306 12.1243C8.25953 12.1218 8.35305 12.1578 8.42304 12.2242C8.45193 12.2448 8.82359 12.4948 10.0003 12.4948C11.2225 12.4948 11.5758 12.2253 11.5791 12.2226C11.6127 12.1893 11.6526 12.1631 11.6965 12.1454C11.7403 12.1278 11.7873 12.1191 11.8345 12.1199C11.8818 12.1207 11.9284 12.1309 11.9717 12.1499C12.0149 12.169 12.0539 12.1965 12.0864 12.2309C12.1537 12.3014 12.1906 12.3956 12.1891 12.493C12.1877 12.5905 12.148 12.6835 12.0786 12.752C12.0003 12.8314 11.5303 13.2231 10.0003 13.2231ZM10.4169 10.972H9.58359C9.35415 10.972 9.16693 10.7848 9.16693 10.5553C9.16693 10.3259 9.35415 10.1387 9.58359 10.1387H10.4169C10.6464 10.1387 10.8336 10.3259 10.8336 10.5553C10.8336 10.7848 10.6464 10.972 10.4169 10.972Z" fill="#C1694F"/>
<path d="M7.77821 9.44401C7.47266 9.44401 7.22266 9.19401 7.22266 8.88845V8.3329C7.22266 8.02734 7.47266 7.77734 7.77821 7.77734C8.08377 7.77734 8.33377 8.02734 8.33377 8.3329V8.88845C8.33377 9.19401 8.08377 9.44401 7.77821 9.44401ZM12.2227 9.44401C11.9171 9.44401 11.6671 9.19401 11.6671 8.88845V8.3329C11.6671 8.02734 11.9171 7.77734 12.2227 7.77734C12.5282 7.77734 12.7782 8.02734 12.7782 8.3329V8.88845C12.7782 9.19401 12.5282 9.44401 12.2227 9.44401Z" fill="#662113"/>
<path d="M10.0003 1.66699C13.138 1.66699 15.0991 4.24921 15.0991 6.17866C15.0991 8.1081 14.5597 8.93866 14.3147 8.1081C13.8891 6.66699 13.3336 6.66699 13.3336 6.66699C13.3336 6.66699 11.1769 7.52144 10.3925 6.74921C10.3925 6.74921 11.5691 9.06477 9.21581 6.74921C9.21581 6.74921 9.60803 8.2931 7.2547 6.36366C7.2547 6.36366 6.07803 6.17866 5.68581 8.1081C5.57692 8.64366 4.90137 8.1081 4.90137 6.17866C4.90137 4.24921 6.47026 1.66699 10.0003 1.66699Z" fill="#FFE51E"/>
<path d="M17.8358 1.95026L10.058 0.283593C10.0197 0.275261 9.98013 0.275261 9.94188 0.283593L2.1641 1.95026C2.10344 1.96321 2.04886 1.9961 2.00907 2.04367C1.96927 2.09124 1.94653 2.15076 1.94449 2.21275C1.94244 2.27474 1.9612 2.33564 1.99778 2.38573C2.03436 2.43582 2.08665 2.47223 2.14632 2.48915L4.89299 3.27415C4.78632 3.6047 4.72243 3.98637 4.72243 4.44415C4.72243 5.71637 6.54743 6.38859 10.0002 6.38859C13.453 6.38859 15.278 5.71637 15.278 4.44415C15.278 3.98637 15.2141 3.6047 15.1074 3.27415L17.8547 2.48915C17.9143 2.47212 17.9665 2.4356 18.003 2.38543C18.0395 2.33526 18.0582 2.27432 18.056 2.21232C18.0538 2.15032 18.031 2.09083 17.991 2.04333C17.9511 1.99584 17.8965 1.96308 17.8358 1.95026Z" fill="#111827"/>
<path d="M18.0444 2.14607C18.024 2.07536 17.9764 2.01559 17.9121 1.97979C17.8478 1.94399 17.7719 1.93506 17.7011 1.95496L9.99996 4.15552L2.2983 1.95496C2.26321 1.94497 2.22649 1.94198 2.19024 1.94618C2.154 1.95037 2.11893 1.96167 2.08705 1.97941C2.02266 2.01525 1.97515 2.0752 1.95496 2.14607C1.93478 2.21695 1.94357 2.29293 1.97941 2.35732C2.01525 2.42171 2.0752 2.46922 2.14608 2.48941L9.92385 4.71163C9.97339 4.726 10.026 4.726 10.0755 4.71163L17.8533 2.48941C17.8885 2.47955 17.9214 2.46283 17.95 2.4402C17.9787 2.41757 18.0026 2.38948 18.0204 2.35756C18.0382 2.32564 18.0494 2.29052 18.0536 2.25422C18.0577 2.21792 18.0546 2.18117 18.0444 2.14607Z" fill="#66757F"/>
<path d="M9.97623 1.94571L3.30957 2.50127C3.29512 2.50238 3.05512 2.53294 3.05512 2.77794V6.16405C2.88901 6.26738 2.77734 6.57516 2.77734 7.50016C2.77734 8.88071 3.02623 10.0002 3.3329 10.0002C3.63957 10.0002 3.88845 8.88071 3.88845 7.50016C3.88845 6.57516 3.77679 6.26738 3.61068 6.16405V3.03349L10.0229 2.49905C10.0946 2.49079 10.1603 2.45492 10.2061 2.39905C10.2518 2.34318 10.274 2.2717 10.2679 2.19975C10.2619 2.1278 10.228 2.06104 10.1736 2.01361C10.1191 1.96619 10.0483 1.94184 9.97623 1.94571Z" fill="#FFCC4D"/>
</g>
<path d="M25.1797 20V8.54688H33.0312V10.4844H27.4922V13.1953H32.2734V15.1328H27.4922V20H25.1797ZM34.9297 10.5781V8.54688H37.125V10.5781H34.9297ZM34.9297 20V11.7031H37.125V20H34.9297ZM46.9297 20H44.7344V15.7656C44.7344 14.8698 44.6875 14.2917 44.5938 14.0312C44.5 13.7656 44.3464 13.5599 44.1328 13.4141C43.9245 13.2682 43.6719 13.1953 43.375 13.1953C42.9948 13.1953 42.6536 13.2995 42.3516 13.5078C42.0495 13.7161 41.8411 13.9922 41.7266 14.3359C41.6172 14.6797 41.5625 15.3151 41.5625 16.2422V20H39.3672V11.7031H41.4062V12.9219C42.1302 11.9844 43.0417 11.5156 44.1406 11.5156C44.625 11.5156 45.0677 11.6042 45.4688 11.7812C45.8698 11.9531 46.1719 12.1745 46.375 12.4453C46.5833 12.7161 46.7266 13.0234 46.8047 13.3672C46.888 13.7109 46.9297 14.2031 46.9297 14.8438V20ZM56.7734 20H54.7344V18.7812C54.3958 19.2552 53.9948 19.6094 53.5312 19.8438C53.0729 20.0729 52.6094 20.1875 52.1406 20.1875C51.1875 20.1875 50.3698 19.8047 49.6875 19.0391C49.0104 18.2682 48.6719 17.1953 48.6719 15.8203C48.6719 14.4141 49.0026 13.3464 49.6641 12.6172C50.3255 11.8828 51.1615 11.5156 52.1719 11.5156C53.099 11.5156 53.901 11.901 54.5781 12.6719V8.54688H56.7734V20ZM50.9141 15.6719C50.9141 16.5573 51.0365 17.1979 51.2812 17.5938C51.6354 18.1667 52.1302 18.4531 52.7656 18.4531C53.2708 18.4531 53.7005 18.2396 54.0547 17.8125C54.4089 17.3802 54.5859 16.737 54.5859 15.8828C54.5859 14.9297 54.4141 14.2448 54.0703 13.8281C53.7266 13.4062 53.2865 13.1953 52.75 13.1953C52.2292 13.1953 51.7917 13.4036 51.4375 13.8203C51.0885 14.2318 50.9141 14.849 50.9141 15.6719ZM58.375 16.2734L60.625 16.0547C60.7604 16.8099 61.0339 17.3646 61.4453 17.7188C61.862 18.0729 62.4219 18.25 63.125 18.25C63.8698 18.25 64.4297 18.0938 64.8047 17.7812C65.1849 17.4635 65.375 17.0938 65.375 16.6719C65.375 16.401 65.2943 16.1719 65.1328 15.9844C64.9766 15.7917 64.7005 15.625 64.3047 15.4844C64.0339 15.3906 63.4167 15.224 62.4531 14.9844C61.2135 14.6771 60.3438 14.2995 59.8438 13.8516C59.1406 13.2214 58.7891 12.4531 58.7891 11.5469C58.7891 10.9635 58.9531 10.4193 59.2812 9.91406C59.6146 9.40365 60.0911 9.01562 60.7109 8.75C61.3359 8.48438 62.0885 8.35156 62.9688 8.35156C64.4062 8.35156 65.487 8.66667 66.2109 9.29688C66.9401 9.92708 67.3229 10.7682 67.3594 11.8203L65.0469 11.9219C64.9479 11.3333 64.7344 10.9115 64.4062 10.6562C64.0833 10.3958 63.5964 10.2656 62.9453 10.2656C62.2734 10.2656 61.7474 10.4036 61.3672 10.6797C61.1224 10.8568 61 11.0938 61 11.3906C61 11.6615 61.1146 11.8932 61.3438 12.0859C61.6354 12.3307 62.3438 12.5859 63.4688 12.8516C64.5938 13.1172 65.4245 13.3932 65.9609 13.6797C66.5026 13.9609 66.9245 14.349 67.2266 14.8438C67.5339 15.3333 67.6875 15.9401 67.6875 16.6641C67.6875 17.3203 67.5052 17.9349 67.1406 18.5078C66.776 19.0807 66.2604 19.5078 65.5938 19.7891C64.9271 20.0651 64.0964 20.2031 63.1016 20.2031C61.6536 20.2031 60.5417 19.8698 59.7656 19.2031C58.9896 18.5312 58.526 17.5547 58.375 16.2734ZM73.4219 11.7031V13.4531H71.9219V16.7969C71.9219 17.474 71.9349 17.8698 71.9609 17.9844C71.9922 18.0938 72.0573 18.1849 72.1562 18.2578C72.2604 18.3307 72.3854 18.3672 72.5312 18.3672C72.7344 18.3672 73.0286 18.2969 73.4141 18.1562L73.6016 19.8594C73.0911 20.0781 72.513 20.1875 71.8672 20.1875C71.4714 20.1875 71.1146 20.1224 70.7969 19.9922C70.4792 19.8568 70.2448 19.6849 70.0938 19.4766C69.9479 19.263 69.8464 18.9766 69.7891 18.6172C69.7422 18.362 69.7188 17.8464 69.7188 17.0703V13.4531H68.7109V11.7031H69.7188V10.0547L71.9219 8.77344V11.7031H73.4219ZM80.4062 20V18.7578C80.1042 19.2005 79.7057 19.5495 79.2109 19.8047C78.7214 20.0599 78.2031 20.1875 77.6562 20.1875C77.099 20.1875 76.599 20.0651 76.1562 19.8203C75.7135 19.5755 75.3932 19.2318 75.1953 18.7891C74.9974 18.3464 74.8984 17.7344 74.8984 16.9531V11.7031H77.0938V15.5156C77.0938 16.6823 77.1328 17.3984 77.2109 17.6641C77.2943 17.9245 77.4427 18.1328 77.6562 18.2891C77.8698 18.4401 78.1406 18.5156 78.4688 18.5156C78.8438 18.5156 79.1797 18.4141 79.4766 18.2109C79.7734 18.0026 79.9766 17.7474 80.0859 17.4453C80.1953 17.138 80.25 16.3906 80.25 15.2031V11.7031H82.4453V20H80.4062ZM92.3359 20H90.2969V18.7812C89.9583 19.2552 89.5573 19.6094 89.0938 19.8438C88.6354 20.0729 88.1719 20.1875 87.7031 20.1875C86.75 20.1875 85.9323 19.8047 85.25 19.0391C84.5729 18.2682 84.2344 17.1953 84.2344 15.8203C84.2344 14.4141 84.5651 13.3464 85.2266 12.6172C85.888 11.8828 86.724 11.5156 87.7344 11.5156C88.6615 11.5156 89.4635 11.901 90.1406 12.6719V8.54688H92.3359V20ZM86.4766 15.6719C86.4766 16.5573 86.599 17.1979 86.8438 17.5938C87.1979 18.1667 87.6927 18.4531 88.3281 18.4531C88.8333 18.4531 89.263 18.2396 89.6172 17.8125C89.9714 17.3802 90.1484 16.737 90.1484 15.8828C90.1484 14.9297 89.9766 14.2448 89.6328 13.8281C89.2891 13.4062 88.849 13.1953 88.3125 13.1953C87.7917 13.1953 87.3542 13.4036 87 13.8203C86.651 14.2318 86.4766 14.849 86.4766 15.6719ZM99.3125 17.3594L101.5 17.7266C101.219 18.5286 100.773 19.1406 100.164 19.5625C99.5599 19.9792 98.8021 20.1875 97.8906 20.1875C96.4479 20.1875 95.3802 19.7161 94.6875 18.7734C94.1406 18.0182 93.8672 17.0651 93.8672 15.9141C93.8672 14.5391 94.2266 13.4635 94.9453 12.6875C95.6641 11.9062 96.5729 11.5156 97.6719 11.5156C98.9062 11.5156 99.8802 11.9245 100.594 12.7422C101.307 13.5547 101.648 14.8021 101.617 16.4844H96.1172C96.1328 17.1354 96.3099 17.6432 96.6484 18.0078C96.987 18.3672 97.4089 18.5469 97.9141 18.5469C98.2578 18.5469 98.5469 18.4531 98.7812 18.2656C99.0156 18.0781 99.1927 17.776 99.3125 17.3594ZM99.4375 15.1406C99.4219 14.5052 99.2578 14.0234 98.9453 13.6953C98.6328 13.362 98.2526 13.1953 97.8047 13.1953C97.3255 13.1953 96.9297 13.3698 96.6172 13.7188C96.3047 14.0677 96.151 14.5417 96.1562 15.1406H99.4375ZM110.961 20H108.766V15.7656C108.766 14.8698 108.719 14.2917 108.625 14.0312C108.531 13.7656 108.378 13.5599 108.164 13.4141C107.956 13.2682 107.703 13.1953 107.406 13.1953C107.026 13.1953 106.685 13.2995 106.383 13.5078C106.081 13.7161 105.872 13.9922 105.758 14.3359C105.648 14.6797 105.594 15.3151 105.594 16.2422V20H103.398V11.7031H105.438V12.9219C106.161 11.9844 107.073 11.5156 108.172 11.5156C108.656 11.5156 109.099 11.6042 109.5 11.7812C109.901 11.9531 110.203 12.1745 110.406 12.4453C110.615 12.7161 110.758 13.0234 110.836 13.3672C110.919 13.7109 110.961 14.2031 110.961 14.8438V20ZM117 11.7031V13.4531H115.5V16.7969C115.5 17.474 115.513 17.8698 115.539 17.9844C115.57 18.0938 115.635 18.1849 115.734 18.2578C115.839 18.3307 115.964 18.3672 116.109 18.3672C116.312 18.3672 116.607 18.2969 116.992 18.1562L117.18 19.8594C116.669 20.0781 116.091 20.1875 115.445 20.1875C115.049 20.1875 114.693 20.1224 114.375 19.9922C114.057 19.8568 113.823 19.6849 113.672 19.4766C113.526 19.263 113.424 18.9766 113.367 18.6172C113.32 18.362 113.297 17.8464 113.297 17.0703V13.4531H112.289V11.7031H113.297V10.0547L115.5 8.77344V11.7031H117Z" fill="#111827"/>
<defs>
<clipPath id="clip0_226_10">
<rect width="20" height="20" fill="white"/>
</clipPath>
</defs>
</svg>
